<svg width="1360" height="309" viewBox="0 0 1360 309" fill="none" xmlns="http://www.w3.org/2000/svg" class="FooterLogo___StyledExtendSvg-sc-myrc1s-1 cnmrvk"><g fill="#fff" transform="translate(0 120)"><path d="M31.822 174.605c-10.327-7.679-18.22-17.903-23.654-30.699C2.717 131.12 0 117.37 0 102.657c0-19.344 4.16-35.338 12.486-47.966 8.328-12.628 17.734-21.782 28.22-27.465 10.487-5.673 18.77-8.51 24.858-8.51 13.77 0 25.822 3.836 36.149 11.515 10.328 7.68 18.256 17.912 23.778 30.699 5.522 12.795 8.283 26.545 8.283 41.25 0 19.352-4.168 35.338-12.486 47.965-8.327 12.628-17.734 21.791-28.22 27.465-10.487 5.673-18.778 8.518-24.858 8.518-13.929 0-26.061-3.835-36.388-11.514v-.009Zm70.13-13.193c5.841-7.997 8.77-19.989 8.77-35.974 0-6.239-.478-13.034-1.442-20.387-1.921-14.068-5.487-26.66-10.69-37.776-5.204-11.108-11.646-19.865-19.336-26.263-7.69-6.398-16.017-9.597-24.982-9.597-9.45 0-17.211 3.959-23.3 11.868C24.884 51.2 21.85 63.227 21.85 79.38c0 4.64.398 10.71 1.203 18.23 1.92 14.236 5.567 27.102 10.93 38.616 5.362 11.515 11.963 20.59 19.813 27.226 7.84 6.637 16.335 9.95 25.459 9.95 9.124 0 16.849-3.994 22.698-11.991Z" class="FooterLogo___StyledExtendSvgSelect-sc-myrc1s-2" style="transform: translateY(-20px) translateZ(0px);"/><path d="m272.006 154.457.965 1.202-8.646 9.835c-6.247 7.034-11.132 12.151-14.654 15.35-3.522 3.199-6.965 4.798-10.327 4.798-3.682 0-6.646-1.803-8.885-5.399-2.248-3.597-3.929-10.913-5.044-21.942-6.885 8.634-13.292 15.394-19.212 20.263-5.929 4.878-10.406 7.317-13.451 7.317-11.212 0-20.052-3.314-26.539-9.95-6.486-6.637-9.725-16.826-9.725-30.584v-79.15l-17.769-7.432v-1.44h41.308v86.82c0 8.156 2.08 14.315 6.248 18.469 4.159 4.162 9.283 6.238 15.371 6.238 7.69 0 15.132-5.514 22.335-16.551V66.196l-18.017-7.431v-1.44h41.556V167.65l24.495-13.194h-.009Z" class="FooterLogo___StyledExtendSvgSelect-sc-myrc1s-2" style="transform: translateY(-80px) translateZ(0px);"/><path d="M368.706 66.92c-.805 1.122-2.398 3.596-4.805 7.431-2.398 3.836-4.92 7.034-7.566 9.597-2.646 2.563-5.248 3.835-7.805 3.835-1.921 0-3.885-.6-5.885-1.802s-4.283-2.917-6.849-5.161c-3.045-2.236-5.407-3.88-7.089-4.913-1.681-1.034-3.407-1.556-5.168-1.556-1.92 0-4.168 1.485-6.725 4.436-2.566 2.96-4.965 6.513-7.203 10.675v85.381l18.017 6.954v1.44h-59.565v-1.44l18.017-6.954V72.673l-24.494 13.193-.965-1.202c.805-.963 3.841-4.392 9.124-10.313 5.761-6.716 10.451-11.708 14.052-14.987 3.602-3.278 7.089-4.913 10.451-4.913 3.682 0 6.681 1.918 9.009 5.753 2.318 3.835 4.044 11.594 5.168 23.267a225.563 225.563 0 0 1 14.654-19.547c5.283-6.318 8.646-9.473 10.088-9.473 1.443 0 3 .521 4.682 1.564 1.681 1.043 4.123 2.757 7.327 5.152 3.363 2.563 6.247 4.56 8.646 6 2.398 1.44 4.566 2.156 6.486 2.156 1.442 0 2.681-.274 3.726-.84 1.035-.556 2.283-1.395 3.725-2.518l.965.964-.018-.01Z" class="FooterLogo___StyledExtendSvgSelect-sc-myrc1s-2" style="transform: translateY(-120px) translateZ(0px);"/><path d="M494.941 156.26c-.531-2.209-1.284-4.207-2.284-5.974-38.423 25.909-67.714-29.152-68.599-30.831 4.478 5.24 9.362 9.217 14.654 11.938 1.098.548 2.115.963 3.115 1.264 0 0 .381.132 1.115.283.248.053.514.115.832.185.053.018.115.018.151.018.265.053.584.115.902.15.301.018.531.053.832.097 1.699.204 3.947.265 6.478-.079.115 0 .247-.018.318-.018a28.421 28.421 0 0 0 6.894-1.909c5.831-2.394 12.309-7.281 18.07-16.745v-.035l.018-.115c3.416-5.559 6.044-11.789 7.814-18.708a70.735 70.735 0 0 0 2.212-21.066c-.301-7.132-1.602-14.086-3.832-20.908-2.265-6.822-5.725-12.875-10.371-18.16a48.15 48.15 0 0 0-7.779-7.051c-.035-.035-.053-.035-.097-.053a41.325 41.325 0 0 0-2.23-1.529c-.779-.512-1.531-.998-2.363-1.45-.451-.282-.885-.53-1.363-.75-10.539-5.408-21.733-5.567-27.813-5.073h-.053c-1.38.265-2.681.3-3.894.451-.398.053-.646.115-.646.115l-.168.035h-58.272v1.432l18.619 8.81-.23 142.315-19.088 8.316v1.449h58.706v-1.449l-19.354-8.316V85.902c.62 3.694 1.682 8.465 3.151 14.289 1.469 5.823 3.416 12.071 5.831 18.742 2.381 6.637 5.177 13.441 8.363 20.343 3.168 6.883 6.796 13.334 10.84 19.308 4.027 5.956 8.513 11.09 13.389 15.349 4.894 4.259 10.142 7.167 15.752 8.713 2.602.795 5.026 1.167 7.212 1.167 6.646 0 11.858-1.467 15.601-4.41 3.717-2.943 6.177-6.468 7.345-10.595 1.151-4.109 1.23-8.298.204-12.557l.018.009Zm-80.485-59.772c-2.628-6.283-4.566-13.052-5.796-20.342V75.9c-.663-3.11-1.035-6-1.186-8.731-.15-2.695-.15-5.62 0-8.713.319-10.091 2.478-18.345 6.549-24.796 4.017-6.415 9.309-9.561 15.805-9.41 4.212 0 8.362 1.413 12.459 4.205 4.133 2.775 7.929 6.601 11.425 11.39 3.495 4.79 6.548 10.393 9.194 16.746 2.664 6.372 4.611 13.105 5.832 20.237 1.248 7.299 1.584 14.085 1.035 20.342-.531 6.3-1.734 11.806-3.61 16.533-1.85 4.737-4.381 8.413-7.575 11.028-3.168 2.643-6.858 3.977-11.062 3.977-4.203 0-8.345-1.414-12.46-4.189-4.114-2.792-7.929-6.583-11.406-11.408-3.496-4.789-6.575-10.357-9.212-16.63l.008.008Z" class="FooterLogo___StyledExtendSvgSelect-sc-myrc1s-2" style="transform: translateY(-20px) translateZ(0px);"/><path d="M597.784 161.173c-18.256 16.631-30.742 24.946-37.467 24.946-10.894 0-20.743-2.438-29.539-7.316-8.805-4.878-15.734-11.992-20.778-21.35-5.044-9.358-7.566-20.589-7.566-33.694 0-16.313 3.486-29.656 10.451-40.057 6.964-10.392 14.849-17.903 23.654-22.542 8.805-4.64 15.849-6.955 21.132-6.955 12.973 0 22.574 3.64 28.822 10.913 6.247 7.273 9.522 17.232 9.849 29.86 0 1.6-1.726 3.685-5.168 6.238-3.442 2.563-7.292 4.878-11.531 6.955-4.247 2.076-7.247 3.119-9.008 3.119h-48.999c.965 10.551 3.682 20.148 8.168 28.781 4.478 8.634 10.451 15.429 17.894 20.387 7.442 4.957 15.973 7.431 25.583 7.431 4.159 0 7.884-.636 11.168-1.917 3.283-1.282 7.406-3.358 12.371-6.239l.964 1.44Zm-68.696-87.898c-5.283 5.673-7.929 15.552-7.929 29.62v4.074h51.635c.319-8.951-.602-16.586-2.761-22.905-2.159-6.318-5.203-11.107-9.124-14.386-3.929-3.278-8.282-4.913-13.088-4.913-7.203 0-13.45 2.837-18.733 8.519v-.01Z" class="FooterLogo___StyledExtendSvgSelect-sc-myrc1s-2" style="transform: translateY(-80px) translateZ(0px);"/><path d="M661.245 57.324h41.547v1.44L650.909 189h-1.443L598.309 58.765v-1.44h44.91v1.44l-17.77 7.431 33.389 88.5h1.681l14.168-39.571c4.477-12.468 6.725-22.542 6.725-30.221 0-6.39-1.646-11.594-4.92-15.588-3.283-3.995-8.372-7.512-15.247-10.551v-1.44Z" class="FooterLogo___StyledExtendSvgSelect-sc-myrc1s-2" style="transform: translateY(-120px) translateZ(0px);"/><path d="M725.297 178.802c-8.009-4.878-14.336-11.912-18.973-21.102-4.646-9.19-6.965-20.104-6.965-32.74 0-16.79 3.239-30.416 9.726-40.896 6.486-10.472 13.769-17.992 21.857-22.543 8.08-4.56 14.531-6.84 19.336-6.84 9.929 0 18.937 2.395 27.017 7.194 8.079 4.798 14.451 11.832 19.097 21.102 4.645 9.278 6.964 20.227 6.964 32.855 0 16.63-3.239 30.221-9.725 40.772-6.487 10.551-13.814 18.107-21.973 22.666-8.168 4.56-14.655 6.84-19.46 6.84-9.929 0-18.893-2.439-26.901-7.317v.009Zm51.635-13.308c3.841-5.594 5.761-14.307 5.761-26.148 0-4.957-.328-9.915-.965-14.872-2.398-18.707-7.442-33.34-15.132-43.892-7.69-10.551-16.813-15.508-27.38-14.872-5.283.636-9.849 3.756-13.689 9.358-3.841 5.602-5.761 14.386-5.761 26.386 0 4.958.318 9.915.964 14.873 2.239 18.548 7.248 33.102 15.009 43.653 7.76 10.551 17.008 15.508 27.742 14.872 5.124-.636 9.61-3.756 13.451-9.349v-.009Z" class="FooterLogo___StyledExtendSvgSelect-sc-myrc1s-2" style="transform: translateY(-80px) translateZ(0px);"/><path d="m844.087 174.843 18.017 6.955v1.44h-59.325v-1.44l18.017-6.955V14.156h-.239l-20.893-1.44v-1.44L842.645 0h1.442v174.843Z" class="FooterLogo___StyledExtendSvgSelect-sc-myrc1s-2" style="transform: translateY(-10px) translateZ(0px);"/><path d="m989.995 154.457.964 1.202-8.645 9.835c-6.248 7.034-11.133 12.151-14.655 15.35-3.522 3.199-6.964 4.798-10.327 4.798-3.681 0-6.646-1.803-8.885-5.399-2.247-3.597-3.929-10.913-5.044-21.942-6.884 8.634-13.291 15.394-19.211 20.263-5.929 4.878-10.407 7.317-13.451 7.317-11.212 0-20.053-3.314-26.539-9.95-6.487-6.637-9.726-16.826-9.726-30.584v-79.15l-17.769-7.432v-1.44h41.308v86.82c0 8.156 2.08 14.315 6.248 18.469 4.159 4.162 9.283 6.238 15.371 6.238 7.681 0 15.132-5.514 22.336-16.551V66.196l-18.017-7.431v-1.44H965.5V167.65l24.495-13.194Z" class="FooterLogo___StyledExtendSvgSelect-sc-myrc1s-2" style="transform: translateY(-80px) translateZ(0px);"/><path d="M1056.58 162.375c-6.09 6.875-12.25 12.557-18.5 17.028-6.25 4.472-10.89 6.716-13.93 6.716-7.36 0-13.01-2.439-16.94-7.316-3.92-4.878-5.88-12.195-5.88-21.942l-.24-93.06-18.016-5.036v-1.44h19.216l21.13-31.177h1.2l-.48 31.176h30.75v8.634c-5.61 0-15.85-1.114-30.75-3.358v90.665c0 10.877 4.65 16.312 13.93 16.312 2.56 0 5.17-.601 7.81-1.803 2.64-1.201 5.88-3.393 9.72-6.592l.97 1.202.01-.009Z" class="FooterLogo___StyledExtendSvgSelect-sc-myrc1s-2" style="transform: translateY(-120px) translateZ(0px);"/><path d="m1079.36 174.841.24-108.647-18.02-7.432v-1.44h41.56v8.872l-.24 108.647 18.02 6.955v1.44h-59.57v-1.44l18.02-6.955h-.01Zm.48-143.667c-2.73-2.554-4.08-5.912-4.08-10.074s1.36-7.316 4.08-9.95c2.72-2.642 6.25-3.959 10.56-3.959 4 0 7.37 1.317 10.09 3.96 2.72 2.641 4.08 5.955 4.08 9.95 0 3.994-1.32 7.316-3.96 9.95-2.65 2.642-6.05 3.958-10.21 3.958-4.16 0-7.85-1.281-10.56-3.835Z" class="FooterLogo___StyledExtendSvgSelect-sc-myrc1s-2" style="transform: translateY(-20px) translateZ(0px);"/><path d="M1145.82 178.802c-8.01-4.878-14.34-11.912-18.97-21.102-4.65-9.19-6.97-20.104-6.97-32.74 0-16.79 3.24-30.416 9.73-40.896 6.48-10.472 13.77-17.992 21.86-22.543 8.08-4.56 14.53-6.84 19.33-6.84 9.93 0 18.94 2.395 27.02 7.194 8.08 4.798 14.45 11.832 19.1 21.102 4.64 9.278 6.96 20.227 6.96 32.855 0 16.63-3.24 30.221-9.73 40.772-6.48 10.551-13.81 18.107-21.97 22.666-8.17 4.56-14.65 6.84-19.46 6.84-9.93 0-18.89-2.439-26.9-7.317v.009Zm51.64-13.308c3.84-5.594 5.76-14.307 5.76-26.148 0-4.957-.33-9.915-.97-14.872-2.4-18.707-7.44-33.34-15.13-43.892-7.69-10.551-16.81-15.508-27.38-14.872-5.28.636-9.85 3.756-13.69 9.358s-5.76 14.386-5.76 26.386c0 4.958.32 9.915.96 14.873 2.24 18.548 7.25 33.102 15.01 43.653 7.76 10.551 17.01 15.508 27.74 14.872 5.13-.636 9.61-3.756 13.46-9.349v-.009Z" class="FooterLogo___StyledExtendSvgSelect-sc-myrc1s-2" style="transform: translateY(-80px) translateZ(0px);"/><path d="m1341.98 174.843 18.02 6.954v1.44h-59.57v-1.44l18.02-6.954V96.417c0-8.157-2.08-14.272-6.25-18.345-4.16-4.074-9.29-6.115-15.37-6.115-7.2 0-14.25 4.957-21.13 14.872v88.022l18.02 6.955v1.44h-59.57v-1.44l18.02-6.955V72.673l-24.49 13.193-.97-1.202c.81-.963 3.84-4.392 9.12-10.313 5.77-6.716 10.46-11.708 14.06-14.987 3.6-3.278 7.09-4.913 10.45-4.913 3.36 0 6.44 1.759 8.77 5.276 2.32 3.517 4.04 10.64 5.17 21.35 6.56-8.157 12.73-14.59 18.49-19.309 5.76-4.71 10.09-7.078 12.97-7.078 11.21 0 20.06 3.322 26.54 9.95 6.49 6.636 9.73 16.904 9.73 30.822v79.389l-.03-.008Z" class="FooterLogo___StyledExtendSvgSelect-sc-myrc1s-2" style="transform: translateY(-120px) translateZ(0px);"/></g></svg>