<svg width="211" height="270" viewBox="0 0 211 270" fill="none" xmlns="http://www.w3.org/2000/svg" class="PageTransition___StyledIconSvg-sc-1947g3t-1 dDzlMp"><path d="M206.886 110.434c-.937-5.693-2.368-11.373-4.058-16.815-1.757-5.998-3.142-9.411-3.142-9.411-.183-.42-.373-.828-.563-1.242a201.496 201.496 0 0 0-5.177-12.247 121.483 121.483 0 0 0-8.455-16.4c-.074-.123-.122-.211-.122-.211a120.648 120.648 0 0 0-18.728-23.253s-61.462-62.623-124.084-9.439c-.081.048-.136.115-.203.17-.048.047-.082.068-.136.115-54.33 52.96-43.535 122.164-35.86 150.792 0 0 .06.237.182.671 1.513 5.544 2.87 9.473 3.57 11.359 3.114 8.943 8.115 21.293 14.826 31.416a120.798 120.798 0 0 0 18.687 23.206s61.475 62.623 124.104 9.439c.082-.048.136-.136.204-.17.047-.047.068-.081.115-.135 47.348-46.141 45.245-104.624 38.846-137.845h-.006Zm-34.545 123.84c-13.062 15.504-29.455 23.253-49.207 23.253-18.572 0-35.406-6.019-50.524-18.015-15.064-11.997-27.27-28.261-36.567-48.807-9.282-20.513-14.948-43.21-16.99-68.031-.34-5.272-.57-9.655-.726-13.177v-1.974c0-32.394 6.54-56.32 19.616-71.824C50.985 20.195 67.4 12.46 87.137 12.46c18.585 0 35.427 6.019 50.524 18.016 15.084 11.996 27.284 28.247 36.587 48.787 9.282 20.525 14.948 43.209 16.97 68.03.353 5.292.59 9.676.726 13.177.014.658.014 1.296.014 1.988 0 32.393-6.541 56.305-19.617 71.81v.007Z"/><path d="M157.59 170.559c-32.339 21.808-57.078-23.878-58.306-26.226 3.806 4.451 7.952 7.817 12.417 10.11.929.489 1.805.828 2.66 1.079 0 0 .319.136.943.251.203.048.441.102.706.15a.523.523 0 0 0 .135.013c.217.048.489.102.774.136.237.014.441.047.692.068 1.452.183 3.352.237 5.51-.048.101 0 .203-.013.285-.013a24.214 24.214 0 0 0 5.849-1.636c4.973-2.022 10.483-6.188 15.369-14.256v-.013l.013-.102c2.918-4.736 5.143-10.042 6.643-15.925a59.682 59.682 0 0 0 1.873-17.948c-.238-6.052-1.351-11.996-3.25-17.798-1.921-5.815-4.852-10.972-8.815-15.47a39.757 39.757 0 0 0-6.609-5.999c-.034-.034-.047-.034-.081-.047-.624-.455-1.249-.91-1.907-1.317a23.266 23.266 0 0 0-2.008-1.214c-.373-.251-.74-.455-1.147-.658-8.963-4.621-18.49-4.736-23.647-4.316h-.048c-1.18.238-2.293.251-3.304.387-.353.047-.556.081-.556.081l-.15.034H52.098v1.229l15.823 7.484-.203 121.2-16.23 7.077v1.229h49.933v-1.229l-16.468-7.077v-74.082c.522 3.168 1.431 7.212 2.68 12.186 1.249 4.953 2.897 10.266 4.953 15.959a228.039 228.039 0 0 0 7.112 17.323c2.714 5.863 5.794 11.339 9.221 16.435 3.44 5.089 7.247 9.452 11.406 13.075 4.159 3.637 8.611 6.12 13.381 7.416 2.225.672 4.281 1.011 6.134 1.011 5.659 0 10.096-1.262 13.279-3.759 3.148-2.51 5.225-5.509 6.236-9.031.977-3.508 1.045-7.064.169-10.687-.441-1.886-1.079-3.576-1.94-5.089l.006.007Zm-66.496-45.822c-2.226-5.36-3.875-11.121-4.94-17.323v-.204c-.536-2.659-.876-5.109-.998-7.45-.135-2.293-.135-4.784 0-7.416.272-8.577 2.104-15.62 5.564-21.116 3.42-5.463 7.919-8.143 13.449-8.007 3.59 0 7.111 1.194 10.599 3.576 3.508 2.361 6.738 5.611 9.723 9.69 2.952 4.098 5.564 8.847 7.803 14.255 2.26 5.442 3.909 11.176 4.974 17.242 1.045 6.215 1.35 11.997.875 17.343-.454 5.361-1.486 10.043-3.067 14.073-1.567 4.031-3.725 7.166-6.439 9.384-2.694 2.26-5.829 3.386-9.418 3.386-3.589 0-7.077-1.194-10.585-3.555-3.508-2.375-6.738-5.612-9.71-9.724-2.986-4.078-5.578-8.814-7.837-14.154h.007Z"/></svg>